<mxfile>
    <diagram id="LpUvIIttoJX7Mj-2VVL4" name="Page-1">
        <mxGraphModel dx="1020" dy="761" grid="1" gridSize="10" guides="1" tooltips="1" connect="1" arrows="1" fold="1" page="1" pageScale="1" pageWidth="827" pageHeight="1169" math="0" shadow="0">
            <root>
                <mxCell id="0"/>
                <mxCell id="1" parent="0"/>
                <mxCell id="GGjfLmtMtnxDscI8gtsh-1" value="" style="ellipse;whiteSpace=wrap;html=1;aspect=fixed;" parent="1" vertex="1">
                    <mxGeometry x="360" y="360" width="80" height="80" as="geometry"/>
                </mxCell>
                <mxCell id="GGjfLmtMtnxDscI8gtsh-2" value="" style="ellipse;whiteSpace=wrap;html=1;aspect=fixed;" parent="1" vertex="1">
                    <mxGeometry x="240" y="240" width="80" height="80" as="geometry"/>
                </mxCell>
                <mxCell id="GGjfLmtMtnxDscI8gtsh-3" value="" style="ellipse;whiteSpace=wrap;html=1;aspect=fixed;" parent="1" vertex="1">
                    <mxGeometry x="480" y="240" width="80" height="80" as="geometry"/>
                </mxCell>
                <mxCell id="GGjfLmtMtnxDscI8gtsh-4" value="" style="ellipse;whiteSpace=wrap;html=1;aspect=fixed;" parent="1" vertex="1">
                    <mxGeometry x="130" y="120" width="80" height="80" as="geometry"/>
                </mxCell>
                <mxCell id="GGjfLmtMtnxDscI8gtsh-5" value="" style="ellipse;whiteSpace=wrap;html=1;aspect=fixed;" parent="1" vertex="1">
                    <mxGeometry x="350" y="120" width="80" height="80" as="geometry"/>
                </mxCell>
                <mxCell id="GGjfLmtMtnxDscI8gtsh-6" value="" style="ellipse;whiteSpace=wrap;html=1;aspect=fixed;" parent="1" vertex="1">
                    <mxGeometry x="600" y="120" width="80" height="80" as="geometry"/>
                </mxCell>
                <mxCell id="GGjfLmtMtnxDscI8gtsh-11" value="" style="endArrow=classic;html=1;" parent="1" source="GGjfLmtMtnxDscI8gtsh-1" target="GGjfLmtMtnxDscI8gtsh-2" edge="1">
                    <mxGeometry width="50" height="50" relative="1" as="geometry">
                        <mxPoint x="370" y="150" as="sourcePoint"/>
                        <mxPoint x="420" y="100" as="targetPoint"/>
                    </mxGeometry>
                </mxCell>
                <mxCell id="GGjfLmtMtnxDscI8gtsh-12" value="" style="endArrow=classic;html=1;" parent="1" source="GGjfLmtMtnxDscI8gtsh-2" target="GGjfLmtMtnxDscI8gtsh-4" edge="1">
                    <mxGeometry width="50" height="50" relative="1" as="geometry">
                        <mxPoint x="370" y="150" as="sourcePoint"/>
                        <mxPoint x="420" y="100" as="targetPoint"/>
                    </mxGeometry>
                </mxCell>
                <mxCell id="GGjfLmtMtnxDscI8gtsh-13" value="" style="endArrow=classic;html=1;" parent="1" source="GGjfLmtMtnxDscI8gtsh-2" target="GGjfLmtMtnxDscI8gtsh-5" edge="1">
                    <mxGeometry width="50" height="50" relative="1" as="geometry">
                        <mxPoint x="370" y="150" as="sourcePoint"/>
                        <mxPoint x="420" y="100" as="targetPoint"/>
                    </mxGeometry>
                </mxCell>
                <mxCell id="GGjfLmtMtnxDscI8gtsh-14" value="" style="endArrow=classic;html=1;exitX=0.696;exitY=0.058;exitDx=0;exitDy=0;exitPerimeter=0;" parent="1" source="GGjfLmtMtnxDscI8gtsh-1" target="GGjfLmtMtnxDscI8gtsh-3" edge="1">
                    <mxGeometry width="50" height="50" relative="1" as="geometry">
                        <mxPoint x="410" y="350" as="sourcePoint"/>
                        <mxPoint x="490" y="260" as="targetPoint"/>
                    </mxGeometry>
                </mxCell>
                <mxCell id="GGjfLmtMtnxDscI8gtsh-15" value="" style="endArrow=classic;html=1;" parent="1" source="GGjfLmtMtnxDscI8gtsh-3" target="GGjfLmtMtnxDscI8gtsh-6" edge="1">
                    <mxGeometry width="50" height="50" relative="1" as="geometry">
                        <mxPoint x="370" y="150" as="sourcePoint"/>
                        <mxPoint x="420" y="100" as="targetPoint"/>
                    </mxGeometry>
                </mxCell>
                <mxCell id="GGjfLmtMtnxDscI8gtsh-22" value="" style="curved=1;endArrow=classic;html=1;strokeWidth=3;fillColor=#e51400;strokeColor=#B20000;" parent="1" source="GGjfLmtMtnxDscI8gtsh-2" target="GGjfLmtMtnxDscI8gtsh-6" edge="1">
                    <mxGeometry width="50" height="50" relative="1" as="geometry">
                        <mxPoint x="370" y="300" as="sourcePoint"/>
                        <mxPoint x="420" y="250" as="targetPoint"/>
                        <Array as="points">
                            <mxPoint x="400" y="320"/>
                            <mxPoint x="480" y="180"/>
                        </Array>
                    </mxGeometry>
                </mxCell>
                <mxCell id="GGjfLmtMtnxDscI8gtsh-23" value="" style="curved=1;endArrow=classic;html=1;strokeWidth=3;fillColor=#e51400;strokeColor=#B20000;" parent="1" source="GGjfLmtMtnxDscI8gtsh-4" target="GGjfLmtMtnxDscI8gtsh-5" edge="1">
                    <mxGeometry width="50" height="50" relative="1" as="geometry">
                        <mxPoint x="370" y="190" as="sourcePoint"/>
                        <mxPoint x="420" y="140" as="targetPoint"/>
                        <Array as="points">
                            <mxPoint x="240" y="120"/>
                            <mxPoint x="320" y="120"/>
                        </Array>
                    </mxGeometry>
                </mxCell>
                <mxCell id="GGjfLmtMtnxDscI8gtsh-25" value="" style="curved=1;endArrow=classic;html=1;strokeWidth=3;fillColor=#e51400;strokeColor=#B20000;" parent="1" source="GGjfLmtMtnxDscI8gtsh-5" target="GGjfLmtMtnxDscI8gtsh-2" edge="1">
                    <mxGeometry width="50" height="50" relative="1" as="geometry">
                        <mxPoint x="370" y="370" as="sourcePoint"/>
                        <mxPoint x="420" y="320" as="targetPoint"/>
                        <Array as="points">
                            <mxPoint x="400" y="240"/>
                            <mxPoint x="360" y="280"/>
                        </Array>
                    </mxGeometry>
                </mxCell>
                <mxCell id="GGjfLmtMtnxDscI8gtsh-27" value="" style="curved=1;endArrow=classic;html=1;strokeWidth=3;fillColor=#e51400;strokeColor=#B20000;" parent="1" source="GGjfLmtMtnxDscI8gtsh-6" target="GGjfLmtMtnxDscI8gtsh-3" edge="1">
                    <mxGeometry width="50" height="50" relative="1" as="geometry">
                        <mxPoint x="370" y="370" as="sourcePoint"/>
                        <mxPoint x="420" y="320" as="targetPoint"/>
                        <Array as="points">
                            <mxPoint x="640" y="240"/>
                            <mxPoint x="600" y="280"/>
                        </Array>
                    </mxGeometry>
                </mxCell>
                <mxCell id="2" value="" style="curved=1;endArrow=classic;html=1;strokeWidth=3;fillColor=#e51400;strokeColor=#B20000;" edge="1" parent="1" source="GGjfLmtMtnxDscI8gtsh-3" target="GGjfLmtMtnxDscI8gtsh-1">
                    <mxGeometry width="50" height="50" relative="1" as="geometry">
                        <mxPoint x="650" y="210" as="sourcePoint"/>
                        <mxPoint x="570" y="290" as="targetPoint"/>
                        <Array as="points">
                            <mxPoint x="520" y="360"/>
                            <mxPoint x="480" y="400"/>
                        </Array>
                    </mxGeometry>
                </mxCell>
            </root>
        </mxGraphModel>
    </diagram>
</mxfile>